<svg width="120" height="120" viewBox="0 0 120 120" fill="none" xmlns="http://www.w3.org/2000/svg">
<g id="android">
<path id="android_2" d="M87.66 75.53C86.3293 75.5293 85.0533 75.0001 84.1128 74.0587C83.1723 73.1172 82.6443 71.8407 82.645 70.51C82.6457 69.1793 83.1749 67.9033 84.1164 66.9628C85.0578 66.0223 86.3343 65.4943 87.665 65.495C88.9957 65.495 90.2719 66.0236 91.2129 66.9646C92.1539 67.9056 92.6825 69.1818 92.6825 70.5125C92.6825 71.8432 92.1539 73.1195 91.2129 74.0604C90.2719 75.0014 88.9957 75.53 87.665 75.53H87.66ZM32.44 75.53C31.7811 75.5297 31.1287 75.3996 30.5201 75.1471C29.9115 74.8947 29.3585 74.5248 28.8928 74.0587C27.9523 73.1172 27.4243 71.8407 27.425 70.51C27.4257 69.1793 27.9549 67.9033 28.8964 66.9628C29.8378 66.0223 31.1143 65.4943 32.445 65.495C33.7757 65.495 35.0519 66.0236 35.9929 66.9646C36.9339 67.9056 37.4625 69.1818 37.4625 70.5125C37.4625 71.8432 36.9339 73.1195 35.9929 74.0604C35.0519 75.0014 33.7757 75.53 32.445 75.53H32.44ZM89.44 45.44L99.47 28.145C99.7399 27.667 99.8088 27.1013 99.6615 26.5724C99.5143 26.0436 99.1631 25.5949 98.685 25.325C98.2069 25.0552 97.6413 24.9863 97.1124 25.1335C96.5836 25.2807 96.1349 25.632 95.865 26.11L85.73 43.61C77.681 39.9309 68.9299 38.0408 60.08 38.07C50.83 38.07 42.105 40.06 34.375 43.56L24.24 26.06C24.1064 25.8236 23.9275 25.6159 23.7136 25.4486C23.4997 25.2814 23.2549 25.1579 22.9933 25.0852C22.7317 25.0126 22.4583 24.9922 22.1888 25.0251C21.9193 25.0581 21.6589 25.1439 21.4225 25.2775C21.1861 25.4111 20.9784 25.59 20.8111 25.8039C20.6439 26.0178 20.5204 26.2626 20.4477 26.5242C20.3751 26.7858 20.3546 27.0592 20.3876 27.3287C20.4206 27.5982 20.5064 27.8586 20.64 28.095L30.615 45.385C13.48 54.735 1.725 72.085 0 92.615H120C118.33 72.135 106.625 54.79 89.44 45.44V45.44Z" fill="black"/>
</g>
</svg>
