<svg width="120" height="120" viewBox="0 0 120 120" fill="none" xmlns="http://www.w3.org/2000/svg">
<g id="android-tv">
<path id="line" d="M80.9175 88.75H103.75C105.076 88.75 106.348 88.2232 107.286 87.2855C108.223 86.3479 108.75 85.0761 108.75 83.75V23.75C108.75 22.4239 108.223 21.1521 107.286 20.2145C106.348 19.2768 105.076 18.75 103.75 18.75H16.25C14.9239 18.75 13.6521 19.2768 12.7145 20.2145C11.7768 21.1521 11.25 22.4239 11.25 23.75V83.75C11.25 85.0761 11.7768 86.3479 12.7145 87.2855C13.6521 88.2232 14.9239 88.75 16.25 88.75H39.08" stroke="black" stroke-linecap="round" stroke-linejoin="round"/>
<path id="button-line" d="M60 101.25C73.1168 101.25 83.75 90.6168 83.75 77.5C83.75 64.3832 73.1168 53.75 60 53.75C46.8832 53.75 36.25 64.3832 36.25 77.5C36.25 90.6168 46.8832 101.25 60 101.25Z" stroke="black" stroke-linecap="round" stroke-linejoin="round"/>
<path id="button-center" d="M60 85C64.1421 85 67.5 81.6421 67.5 77.5C67.5 73.3579 64.1421 70 60 70C55.8579 70 52.5 73.3579 52.5 77.5C52.5 81.6421 55.8579 85 60 85Z" stroke="black" stroke-linecap="round" stroke-linejoin="round"/>
<path id="button-arrow" d="M43.7025 75.1575L42.125 77.5L43.7025 79.8425M62.3425 61.2025L60 59.625L57.6575 61.2025H62.3425ZM76.2975 79.8425L77.875 77.5L76.2975 75.1575V79.8425ZM57.6575 93.7975L60 95.375L62.3425 93.7975H57.6575Z" stroke="black" stroke-linecap="round" stroke-linejoin="round"/>
</g>
</svg>
