<svg width="120" height="120" viewBox="0 0 120 120" fill="none" xmlns="http://www.w3.org/2000/svg">
<g id="chrome">
<path id="chrome_2" d="M43.5703 60C43.5703 69.082 50.918 76.4297 60 76.4297C69.082 76.4297 76.4297 69.082 76.4297 60C76.4297 50.918 69.082 43.5703 60 43.5703C50.918 43.5703 43.5703 50.9062 43.5703 60ZM105.469 42.4687L78.0117 43.8867C85.4648 52.5937 85.582 65.1562 79.3125 74.789L57.2812 108.68C66.4219 109.172 75.8437 107.168 84.375 102.211C105.469 90.0234 114.023 64.4648 105.469 42.4687V42.4687ZM37.5351 69.3633L19.1953 33.293C14.0009 41.2308 11.2393 50.5136 11.25 60C11.25 84.375 29.0977 104.566 52.4297 108.141L64.957 83.6016C53.6367 85.7344 42.7031 79.5234 37.5351 69.3633V69.3633ZM63.1406 35.9062L103.5 38.0273C99.375 29.8476 92.8828 22.7344 84.3515 17.7773C76.6289 13.3125 68.1445 11.1914 59.8242 11.25C45.4687 11.3086 31.4414 17.7187 22.0781 29.3555L37.1016 52.4297C40.8516 41.6601 51.7266 35.2383 63.1406 35.9062Z" fill="black"/>
</g>
</svg>
