<svg width="120" height="120" viewBox="0 0 120 120" fill="none" xmlns="http://www.w3.org/2000/svg">
<g id="edge">
<path id="edge_2" d="M112.95 31.5187C103.329 12.6984 82.5609 1.875 59.9789 1.875C32.1211 1.875 8.7914 21.4875 3.15703 47.7328C9.25078 36.8367 23.3648 29.1844 38.1867 29.1844C56.7656 29.1844 66.5672 40.6523 66.8391 40.9453C71.9953 46.5234 74.5734 52.7555 74.5734 60.4219C74.5734 62.8594 73.3289 66.4734 71.032 69.4617C70.6641 69.9305 69.5344 70.5961 69.5344 72.0398C69.5344 73.2258 70.3055 74.3648 71.6766 75.3211C78.2062 79.8609 90.5133 79.2609 90.5461 79.2609C95.3817 79.2477 100.125 77.9381 104.283 75.4687C108.479 73.0184 111.961 69.5136 114.385 65.302C116.808 61.0905 118.089 56.3185 118.099 51.4594C118.216 41.2805 114.466 34.5141 112.95 31.5187V31.5187ZM49.868 111.485C45.5212 108.78 41.7959 105.185 38.9367 100.938C31.2164 89.8242 30.9117 78.532 34.2258 69.0633C36.5825 61.6277 41.2626 55.1443 47.5781 50.5664C61.4062 39.9727 69.8062 49.2422 70.7953 50.332C70.4696 49.5139 70.0866 48.7198 69.6492 47.9555C67.4836 44.2219 64.0242 39.4219 56.393 35.4141C48.4898 31.268 39.8484 31.057 38.1961 31.057C29.1234 31.057 19.9383 34.1039 12.9937 39.4219C8.3625 42.9609 2.99297 48.9187 2.01562 56.9531C1.7625 59.8383 1.37109 71.6719 7.40625 84.6726C12.4966 95.5332 20.8222 104.553 31.2412 110.495C41.6602 116.437 53.6623 119.011 65.6016 117.862C56.6672 116.311 50.168 111.619 49.868 111.485V111.485ZM108.63 88.4391C108.354 88.2641 108.036 88.1668 107.71 88.1573C107.383 88.1479 107.06 88.2265 106.774 88.3851C105.225 89.1952 103.628 89.909 101.991 90.5227C96.7776 92.4726 91.2556 93.4667 85.6898 93.457C64.2047 93.457 45.4898 78.6773 45.4898 59.707C45.5157 57.5282 46.0384 55.3839 47.018 53.4375C43.278 56.736 40.1957 60.7121 37.9336 65.1562C34.4367 72.0398 30.1992 85.8117 41.0578 100.702C42.5836 102.79 46.4484 107.733 54.1828 111.874C59.707 114.839 65.6672 116.47 70.9875 116.47C79.2234 116.47 98.0414 108.633 109.191 90.9539C109.32 90.7522 109.408 90.527 109.449 90.2912C109.491 90.0554 109.486 89.8137 109.434 89.58C109.382 89.3463 109.284 89.1251 109.146 88.9293C109.008 88.7335 108.833 88.5669 108.63 88.4391V88.4391Z" fill="black"/>
</g>
</svg>
