<svg width="120" height="120" viewBox="0 0 120 120" fill="none" xmlns="http://www.w3.org/2000/svg">
<g id="firefox">
<path id="firefox_2" d="M108.17 55.69C108.102 55.2071 108.002 54.7294 107.87 54.26L106.935 55.44C106.773 53.2834 106.391 51.149 105.795 49.07C105.049 46.4647 104.059 43.9353 102.84 41.515C102.096 39.8952 101.192 38.3542 100.14 36.915C99.595 36.065 99.125 35.435 99.035 35.305C97.225 32.36 95.2 30.57 92.79 27.2C91.2631 24.6119 90.221 21.767 89.715 18.805C89.0399 20.582 88.5327 22.4184 88.2 24.29C85.785 21.845 83.635 20.06 82.36 18.89C76.025 12.975 76.795 9.94 76.795 9.94C76.795 9.94 64.975 23.115 70.085 36.825C71.8559 41.4921 74.9143 45.5612 78.905 48.56C83.85 52.625 89.165 55.82 91.95 64.065C89.7146 59.7335 86.3066 56.1177 82.115 53.63C83.38 56.64 84.015 59.79 83.97 63.05C83.968 65.9858 83.3874 68.8925 82.2613 71.6038C81.1353 74.3151 79.4858 76.7778 77.4073 78.8512C75.3288 80.9246 72.862 82.568 70.148 83.6874C67.4339 84.8068 64.5258 85.3803 61.59 85.375C59.9328 85.3847 58.28 85.2018 56.665 84.83C54.7392 84.4651 52.8754 83.827 51.13 82.935C48.5055 81.3765 46.234 79.2889 44.46 76.805V76.77C44.5804 76.8232 44.7061 76.8634 44.835 76.89C45.77 77.225 46.695 77.48 47.67 77.655C51.4551 78.4484 55.3957 77.9868 58.895 76.34C62.435 74.36 64.59 72.915 66.315 73.47C68.055 74.015 69.355 72.37 68.18 70.645C67.1461 69.3062 65.7655 68.276 64.1878 67.6661C62.6101 67.0562 60.8955 66.8898 59.23 67.185C55.675 67.69 52.43 70.18 47.83 67.77C47.495 67.61 47.245 67.44 46.95 67.265C46.65 67.055 47.96 67.52 47.62 67.31C46.6042 66.8122 45.6309 66.2319 44.71 65.575C44.665 65.53 45.435 65.79 45.34 65.74C44.1366 64.9242 43.104 63.8813 42.3 62.67C41.9019 61.9267 41.6771 61.1029 41.6425 60.2604C41.6078 59.4179 41.7642 58.5785 42.1 57.805C42.5315 57.03 43.1964 56.4106 44 56.035L44.96 56.535C44.96 56.535 44.665 56.035 44.535 55.78C44.585 55.74 44.63 55.78 44.71 55.74C45.22 55.95 46.355 56.535 46.985 56.92C47.4072 57.1414 47.7706 57.4602 48.045 57.85C48.045 57.85 48.26 57.765 48.09 57.31C47.8844 56.7573 47.494 56.2927 46.985 55.995H47.075C47.54 56.25 47.965 56.505 48.38 56.83C48.76 55.9 48.975 54.99 48.94 54.015C48.9698 53.4844 48.8968 52.9529 48.725 52.45C48.55 52.115 48.81 51.985 49.1 52.325C49.0529 52.0605 48.967 51.8044 48.845 51.565C48.845 51.565 49.015 51.31 49.1 51.255C49.315 51.055 49.52 50.845 49.78 50.72C51.245 49.795 52.775 48.985 54.38 48.35C55.2543 48.0073 56.1135 47.6269 56.955 47.21C57.29 47 57.59 46.79 57.885 46.53C58.985 45.605 59.705 44.34 59.95 42.94C60 42.74 60 42.57 60 42.405V42.06C59.83 41.34 58.605 40.835 52.235 40.2C51.1348 40.0319 50.1111 39.5352 49.2982 38.7749C48.4853 38.0147 47.9213 37.0265 47.68 35.94V35.975C47.5858 36.215 47.5007 36.4585 47.425 36.705C47.505 36.44 47.59 36.235 47.68 35.975V35.94C48.8992 32.7627 51.0831 30.0472 53.925 28.175C54.08 28.05 53.295 28.21 53.46 28.09C53.97 27.835 54.515 27.575 55.105 27.365C55.4 27.275 53.88 26.695 52.53 26.815C51.7176 26.8725 50.9194 27.0581 50.165 27.365C50.5 27.12 51.425 26.775 51.215 26.775C49.5006 27.0773 47.8566 27.6925 46.365 28.59C46.365 28.425 46.415 28.29 46.455 28.175C45.2697 28.6734 44.2355 29.4732 43.455 30.495V29.935C42.9289 30.364 42.4358 30.832 41.98 31.335H41.94C38.4296 29.976 34.6021 29.6566 30.915 30.415L30.875 30.37H30.915C30.1468 29.7569 29.4919 29.014 28.98 28.175L28.93 28.21L28.855 28.13C28.59 27.79 28.39 27.37 28.12 26.9C27.92 26.6 27.75 26.22 27.54 25.85C27.54 25.85 27.54 25.81 27.5 25.81C27.45 25.81 27.37 26.195 27.335 26.055C26.6848 24.3783 26.3804 22.5874 26.44 20.79H26.4C25.3412 21.4895 24.5514 22.5279 24.16 23.735C23.955 24.165 23.825 24.375 23.7 24.63V24.49L23.82 23.865C23.79 23.91 23.79 23.95 23.735 23.99C23.4362 24.3392 23.1841 24.7258 22.985 25.14C22.7659 25.5232 22.593 25.9311 22.47 26.355V26.145C22.47 25.975 22.515 25.72 22.47 25.81L22.425 25.925C21.0611 28.9331 20.2062 32.1468 19.895 35.435C19.815 36.025 19.815 36.575 19.815 37.12V37.21C18.85 38.2627 17.9894 39.4063 17.245 40.625C14.7924 44.7639 12.9691 49.2446 11.835 53.92C12.64 52.15 13.605 50.415 14.75 48.815C12.5672 54.3109 11.449 60.1716 11.455 66.085C11.835 64.355 12.3 62.665 12.845 60.975C12.5116 67.9624 13.8611 74.9277 16.78 81.285C20.696 90.082 27.2204 97.4634 35.47 102.43C38.8018 104.711 42.4577 106.477 46.315 107.67C46.825 107.835 47.38 108.04 47.88 108.215C47.71 108.125 47.585 108.04 47.42 108.005C51.9928 109.368 56.7384 110.064 61.51 110.07C78.445 110.07 84.015 103.61 84.56 102.98C85.36 102.225 86.075 101.325 86.54 100.275C86.88 100.155 87.175 100.025 87.515 99.855L87.72 99.775C87.975 99.645 88.095 99.605 88.095 99.605C90.6599 98.4032 93.072 96.8992 95.28 95.125C98.5598 92.7459 100.905 89.2953 101.91 85.37C102.535 83.94 102.535 82.37 102.03 80.9C102.28 80.48 102.5 80.095 102.535 80.01C106.175 74.1768 108.241 67.4996 108.53 60.63V60.05C108.54 58.5889 108.419 57.1298 108.17 55.69V55.69Z" fill="black"/>
</g>
</svg>
