<svg width="120" height="120" viewBox="0 0 120 120" fill="none" xmlns="http://www.w3.org/2000/svg">
<g id="ios">
<path id="ios_2" d="M87.5859 62.7773C87.5391 54.7852 91.1602 48.7617 98.4727 44.3203C94.3828 38.4609 88.1953 35.2383 80.0391 34.6172C72.3164 34.0078 63.8672 39.1172 60.7734 39.1172C57.5039 39.1172 50.0273 34.8281 44.1445 34.8281C32.0039 35.0156 19.1016 44.5078 19.1016 63.8203C19.1016 69.5273 20.1445 75.4219 22.2305 81.4922C25.0195 89.4844 35.0742 109.066 45.5625 108.75C51.0469 108.621 54.9258 104.859 62.0625 104.859C68.9883 104.859 72.5742 108.75 78.6914 108.75C89.2734 108.598 98.3672 90.7969 101.016 82.7813C86.8242 76.0898 87.5859 63.1875 87.5859 62.7773V62.7773ZM75.2695 27.0352C81.2109 19.9805 80.6719 13.5586 80.4961 11.25C75.2461 11.5547 69.1758 14.8242 65.7187 18.8438C61.9102 23.1563 59.6719 28.4883 60.1523 34.5C65.8242 34.9336 71.0039 32.0156 75.2695 27.0352V27.0352Z" fill="black"/>
</g>
</svg>
