<svg width="120" height="120" viewBox="0 0 120 120" fill="none" xmlns="http://www.w3.org/2000/svg">
<g id="linux" clip-path="url(#clip0_2_9)">
<path id="linux_2" d="M62.52 0C61.74 0 60.9412 0.04125 60.1162 0.10125C38.985 1.7775 44.5912 24.1425 44.2762 31.6013C43.8862 37.05 42.7762 41.3663 39.0262 46.7025C34.59 51.9563 28.38 60.4538 25.4325 69.2963C24.0487 73.455 23.3812 77.7375 24.0075 81.7612C23.7716 81.936 23.5781 82.1616 23.4412 82.4213C22.1512 83.7713 21.1912 85.4325 20.1375 86.6213C19.1437 87.615 17.7187 87.9525 16.1512 88.6163C14.5912 89.295 12.8512 89.9625 11.835 92.0325C11.385 92.9737 11.1487 93.9862 11.1712 95.0437C11.1712 96.0187 11.31 97.035 11.445 97.7175C11.7412 99.7088 12.03 101.351 11.64 102.563C10.3912 105.956 10.2562 108.281 11.115 109.984C11.9887 111.664 13.7887 112.327 15.7987 112.995C19.8637 113.989 25.35 113.674 29.6887 115.98C34.3125 118.324 39.0225 119.34 42.7725 118.346C44.066 118.056 45.2786 117.482 46.3223 116.664C47.366 115.847 48.2145 114.807 48.8062 113.621C51.735 113.602 54.9562 112.271 60.0975 111.941C63.5925 111.645 67.9687 113.287 72.9862 112.935C73.1212 113.621 73.2975 113.929 73.5712 114.615V114.634C75.5212 118.519 79.1363 120.278 83.0063 119.985C86.85 119.674 90.9525 117.311 94.2713 113.445C97.4363 109.635 102.69 108.03 106.166 105.945C107.906 104.944 109.313 103.601 109.41 101.666C109.526 99.675 108.416 97.605 105.855 94.7925V94.3012L105.836 94.2825C104.978 93.2888 104.588 91.6088 104.138 89.6588C103.706 87.645 103.238 85.7325 101.678 84.4238C101.363 84.15 101.051 84.09 100.721 83.76C100.444 83.5648 100.118 83.4505 99.78 83.43C101.929 77.04 101.089 70.695 98.8987 64.9688C96.2437 57.9188 91.575 51.7688 88.0387 47.55C84.0525 42.5288 80.1487 37.7662 80.2275 30.7162C80.3625 19.95 81.4163 0.0525 62.5125 0.01125L62.52 0ZM65.1562 17.0287H65.235C66.2887 17.0287 67.2038 17.3438 68.145 18.0075C69.1013 18.6863 69.8062 19.6687 70.3312 20.6812C70.86 21.9712 71.1375 22.965 71.1712 24.2925C71.1712 24.1988 71.19 24.0975 71.19 24.0038V24.5287C71.19 24.4875 71.1712 24.4538 71.1712 24.4125L71.1525 24.2925C71.1525 25.5075 70.9013 26.7188 70.4138 27.8288C70.1821 28.4607 69.8147 29.0341 69.3375 29.5087C69.2025 29.4337 69.0637 29.355 68.9062 29.295C68.3812 29.0587 67.9125 28.9838 67.4813 28.635C67.1264 28.4928 66.7601 28.3812 66.3862 28.3012C66.6225 28.0125 67.11 27.6375 67.305 27.3075C67.56 26.6813 67.695 25.9987 67.7362 25.2975V25.1962C67.7469 24.5193 67.6403 23.8456 67.4212 23.205C67.2075 22.5413 66.9375 22.2037 66.525 21.5437C66.0937 21.21 65.685 20.88 65.175 20.88H65.1C64.6313 20.88 64.2187 21.015 63.7912 21.5437C63.3221 22.0063 62.9732 22.5766 62.775 23.205C62.5026 23.835 62.35 24.5103 62.325 25.1962V25.2975C62.325 25.7437 62.3663 26.1938 62.4188 26.6438C61.4438 26.3138 60.2325 25.9575 59.3737 25.6275C59.327 25.2982 59.3007 24.9663 59.295 24.6337V24.5325C59.257 23.2119 59.5119 21.8992 60.0412 20.6888C60.45 19.5938 61.1925 18.6525 62.19 18.03C63.045 17.3888 64.08 17.0363 65.1562 17.0363V17.0287ZM50.3512 17.325H50.5275C51.2325 17.325 51.8775 17.5612 52.5225 17.9887C53.2612 18.6337 53.8537 19.4325 54.2437 20.31C54.6937 21.3112 54.945 22.3238 55.0237 23.6513V23.67C55.0425 24.3337 55.0425 24.69 55.005 25.0012V25.41L54.5962 25.5263C53.835 25.8 53.2312 26.19 52.62 26.5275C52.68 26.0775 52.68 25.6275 52.6387 25.1962V25.1175C52.5825 24.4575 52.4438 24.1238 52.23 23.4563C52.0699 22.943 51.7807 22.4794 51.39 22.11C51.1444 21.891 50.8223 21.7778 50.4937 21.795H50.3737C50.025 21.8137 49.7287 21.99 49.4587 22.4587C49.1282 22.839 48.918 23.3089 48.855 23.8087C48.7162 24.3337 48.675 24.9 48.735 25.47V25.5263C48.795 26.2125 48.9112 26.5463 49.1437 27.2063C49.2946 27.715 49.5781 28.1744 49.965 28.5375C50.025 28.5975 50.0662 28.6387 50.1412 28.6537C49.7925 28.95 49.5562 29.01 49.2675 29.34C49.0687 29.4787 48.8587 29.655 48.6037 29.6963C48.0837 29.0707 47.6253 28.3963 47.235 27.6825C46.7565 26.6313 46.4914 25.4956 46.455 24.3413C46.3793 23.213 46.5115 22.0805 46.845 21C47.1412 20.025 47.61 19.1063 48.27 18.3263C48.915 17.6625 49.56 17.3325 50.3587 17.3325L50.3512 17.325ZM57.2062 25.86C58.8675 25.86 60.8625 26.1713 63.2812 27.8513C64.7475 28.8525 65.9025 29.2012 68.5575 30.1762C69.8475 30.8625 70.5863 31.5262 70.9575 32.19V31.5262C71.1356 31.8885 71.2347 32.2844 71.2483 32.6878C71.2618 33.0912 71.1896 33.4929 71.0363 33.8663C70.41 35.43 68.4562 37.0913 65.7075 38.085V38.1038C64.3762 38.7675 63.2062 39.765 61.8375 40.4288C60.4537 41.0925 58.8862 41.895 56.7787 41.76C56.0155 41.7935 55.253 41.6802 54.5325 41.4262C53.977 41.1314 53.4421 40.7994 52.9312 40.4325C51.9562 39.7687 51.1162 38.7712 49.8675 38.1075V38.0887H49.8487C47.835 36.8587 46.7625 35.5275 46.41 34.5337C46.08 33.1875 46.3912 32.1937 47.3887 31.53C48.4987 30.8662 49.2787 30.18 49.7887 29.85C50.3137 29.4788 50.5125 29.34 50.67 29.205H50.6887V29.1862C51.5287 28.17 52.8525 26.8425 54.8887 26.175C55.5675 25.9988 56.355 25.8637 57.21 25.8637L57.2062 25.86ZM71.19 36.5587C72.99 43.65 77.19 53.9438 79.8862 58.9238C81.3112 61.5975 84.1613 67.2225 85.3913 74.0438C86.1713 74.025 87.03 74.1375 87.9525 74.3738C91.1925 66.015 85.2375 57.03 82.5225 54.5288C81.4088 53.535 81.3525 52.8675 81.8963 52.8675C84.8475 55.5225 88.71 60.7238 90.1163 66.6375C90.7613 69.3113 90.9225 72.1688 90.2362 74.9963C90.5662 75.1313 90.9 75.3075 91.2525 75.3262C96.4087 78.0075 98.3213 80.0175 97.4025 83.0212V82.8075C97.1138 82.7925 96.7988 82.8075 96.5063 82.8075H96.4275C97.1925 80.4675 95.5125 78.6675 91.0987 76.6763C86.5275 74.685 82.875 74.9962 82.2488 79.0012C82.2046 79.2275 82.1795 79.4571 82.1738 79.6875C81.8175 79.8037 81.4688 79.9388 81.12 79.9988C78.9712 81.3488 77.8163 83.3587 77.1563 85.9387C76.5113 88.6125 76.3163 91.7175 76.14 95.295C76.02 96.975 75.2812 99.4912 74.535 102.049C67.035 107.419 56.625 109.744 47.8012 103.729C47.2312 102.754 46.5675 101.854 45.7875 101.055C45.413 100.434 44.9464 99.8742 44.4037 99.3937C45.3187 99.3937 46.1025 99.24 46.7287 99.06C47.444 98.7154 48.0064 98.1183 48.3075 97.3837C48.8362 96.0525 48.3075 93.9038 46.5675 91.56C44.8537 89.2388 41.9213 86.5988 37.6425 83.9663C34.4812 81.975 32.7037 79.6125 31.8825 76.9913C31.0612 74.3175 31.1775 71.5613 31.8037 68.7713C33.0337 63.42 36.18 58.2075 38.1938 54.9413C38.7188 54.63 38.37 55.6275 36.1425 59.8275C34.1662 63.5775 30.4388 72.3075 35.5313 79.0838C35.727 74.1348 36.8263 69.2634 38.775 64.71C41.5838 58.3238 47.4862 47.1938 47.955 38.3662C48.1912 38.5612 49.0312 39.0525 49.3987 39.3825C50.475 40.0462 51.2925 41.0437 52.35 41.7075C53.4037 42.7012 54.7312 43.3875 56.7262 43.3875C56.9212 43.4062 57.0975 43.4062 57.27 43.4062C59.3212 43.4062 60.9263 42.7425 62.25 42.075C63.6938 41.3888 64.8713 40.395 65.9588 40.065H65.9775C68.3025 39.4013 70.1588 38.0513 71.1938 36.5663L71.19 36.5587ZM82.1287 81.3488C82.3237 84.3525 83.85 87.5775 86.5425 88.2375C89.4712 88.9013 93.7087 86.5763 95.4862 84.4125L96.54 84.3713C98.1187 84.33 99.4312 84.4125 100.774 85.7025L100.793 85.7212C101.828 86.715 102.319 88.3762 102.746 90.0975C103.178 92.1075 103.507 94.0013 104.797 95.4263C107.216 98.0625 108.019 99.9563 107.981 101.13C107.903 102.435 107.04 103.099 105.48 104.096C102.334 106.11 96.75 107.651 93.195 111.953C90.105 115.643 86.34 117.652 83.0137 117.907C79.695 118.181 76.8225 116.914 75.1425 113.419L75.1238 113.4C74.07 111.405 74.52 108.281 75.3975 104.959C76.2788 101.618 77.5462 98.2238 77.7225 95.4675C77.8987 91.8938 78.0938 88.7887 78.6788 86.3812C79.2825 84.0562 80.2237 82.395 81.9037 81.48L82.1175 81.36L82.1287 81.3488ZM28.0462 81.6H28.1062C28.38 81.6 28.635 81.6188 28.8862 81.6788C30.7612 81.9525 32.4225 83.34 34.005 85.4288L38.5537 93.75L38.5725 93.7687C39.7838 96.4237 42.3412 99.0787 44.5087 101.955C46.68 104.94 48.36 107.614 48.165 109.804V109.845C47.8687 113.554 45.7612 115.564 42.54 116.31C39.315 116.974 34.9387 116.31 30.5662 113.985C25.725 111.311 19.9612 111.641 16.2712 110.974C14.4375 110.644 13.2262 109.957 12.6562 108.964C12.1125 107.97 12.09 105.953 13.2825 102.81V102.795C13.8675 101.115 13.4437 99.0262 13.1475 97.1887C12.8737 95.1937 12.7387 93.6488 13.3612 92.4975C14.16 90.8175 15.3525 90.5062 16.815 89.8237C18.2812 89.16 20.0212 88.83 21.3862 87.48H21.405V87.4612C22.6762 86.1375 23.6362 84.4763 24.7462 83.28C25.6875 82.2638 26.64 81.6 28.0462 81.6V81.6ZM63.8513 36.2288C61.68 37.2225 59.1225 38.9025 56.4075 38.9025C53.6925 38.9025 51.5625 37.5787 50.0212 36.5775C49.2412 35.8987 48.615 35.2312 48.1462 34.8975C47.325 34.2375 47.4225 33.2213 47.775 33.2213C48.3187 33.2963 48.42 33.9 48.7687 34.2375C49.26 34.5675 49.845 35.2312 50.565 35.8987C52.0312 36.8925 53.985 38.2387 56.4037 38.2387C58.83 38.2387 61.68 36.8925 63.3975 35.8987C64.3725 35.235 65.6213 34.2375 66.6375 33.5738C67.4175 32.8875 67.3837 32.2238 68.0212 32.2238C68.6662 32.3025 68.2013 32.8875 67.3013 33.885C66.3825 34.5713 64.9762 35.565 63.8475 36.2288H63.8513ZM58.44 28.3012V28.2075C58.4212 28.1062 58.4962 27.9937 58.5937 27.9525C58.9425 27.7387 59.49 27.8138 59.8837 27.9713C60.195 27.9713 60.6825 28.3012 60.645 28.65C60.6038 28.8862 60.2138 28.9838 59.9588 28.9838C59.6888 28.9838 59.49 28.77 59.2575 28.635C59.0025 28.5563 58.5112 28.5937 58.4362 28.3012H58.44ZM55.6837 28.3012C55.5825 28.5975 55.1137 28.5563 54.8625 28.635C54.6262 28.77 54.4312 28.9838 54.1575 28.9838C53.9025 28.9838 53.4937 28.8825 53.4712 28.635C53.4375 28.3013 53.9025 27.9713 54.2175 27.9713C54.6262 27.81 55.1325 27.735 55.5225 27.9525C55.6012 27.9937 55.7025 28.1062 55.6613 28.2075V28.3012H55.6837Z" fill="black"/>
</g>
<defs>
<clipPath id="clip0_2_9">
<rect width="120" height="120" fill="white"/>
</clipPath>
</defs>
</svg>
