<svg width="120" height="120" viewBox="0 0 120 120" fill="none" xmlns="http://www.w3.org/2000/svg">
<g id="macos">
<g id="macos_2">
<path id="line" d="M15 85V35C15 32.3478 16.0536 29.8043 17.9289 27.9289C19.8043 26.0536 22.3478 25 25 25H95C97.6522 25 100.196 26.0536 102.071 27.9289C103.946 29.8043 105 32.3478 105 35V85C105 87.6522 103.946 90.1957 102.071 92.0711C100.196 93.9464 97.6522 95 95 95H25C22.3478 95 19.8043 93.9464 17.9289 92.0711C16.0536 90.1957 15 87.6522 15 85Z" stroke="black" stroke-width="1.5"/>
<path id="dots" d="M50 40.05L50.05 39.995M30 40.05L30.05 39.995L30 40.05ZM40 40.05L40.05 39.995L40 40.05Z" stroke="black" stroke-width="1.5" stroke-linecap="round" stroke-linejoin="round"/>
</g>
</g>
</svg>
