<svg width="120" height="120" viewBox="0 0 120 120" fill="none" xmlns="http://www.w3.org/2000/svg">
<g id="other">
<path id="other_2" d="M60 11.25C50.3582 11.25 40.9328 14.1091 32.9159 19.4659C24.8991 24.8226 18.6506 32.4363 14.9609 41.3442C11.2711 50.2521 10.3057 60.0541 12.1867 69.5107C14.0677 78.9672 18.7107 87.6536 25.5285 94.4715C32.3464 101.289 41.0328 105.932 50.4893 107.813C59.9459 109.694 69.7479 108.729 78.6558 105.039C87.5637 101.349 95.1774 95.1009 100.534 87.084C105.891 79.0671 108.75 69.6418 108.75 60C108.725 47.0783 103.581 34.6929 94.4441 25.5559C85.3071 16.4189 72.9217 11.2748 60 11.25V11.25ZM37.5 65.625C36.3875 65.625 35.2999 65.2951 34.3749 64.677C33.4499 64.0589 32.7289 63.1804 32.3032 62.1526C31.8774 61.1248 31.766 59.9938 31.9831 58.9026C32.2001 57.8115 32.7359 56.8092 33.5225 56.0225C34.3092 55.2359 35.3115 54.7001 36.4026 54.4831C37.4938 54.266 38.6248 54.3774 39.6526 54.8032C40.6804 55.2289 41.5589 55.9499 42.177 56.8749C42.7951 57.7999 43.125 58.8875 43.125 60C43.125 61.4918 42.5324 62.9226 41.4775 63.9775C40.4226 65.0324 38.9918 65.625 37.5 65.625ZM60 65.625C58.8875 65.625 57.7999 65.2951 56.8749 64.677C55.9499 64.0589 55.2289 63.1804 54.8032 62.1526C54.3774 61.1248 54.266 59.9938 54.4831 58.9026C54.7001 57.8115 55.2359 56.8092 56.0225 56.0225C56.8092 55.2359 57.8115 54.7001 58.9026 54.4831C59.9938 54.266 61.1248 54.3774 62.1526 54.8032C63.1804 55.2289 64.0589 55.9499 64.677 56.8749C65.2951 57.7999 65.625 58.8875 65.625 60C65.625 61.4918 65.0324 62.9226 63.9775 63.9775C62.9226 65.0324 61.4918 65.625 60 65.625ZM82.5 65.625C81.3875 65.625 80.2999 65.2951 79.3749 64.677C78.4499 64.0589 77.7289 63.1804 77.3032 62.1526C76.8774 61.1248 76.766 59.9938 76.9831 58.9026C77.2001 57.8115 77.7359 56.8092 78.5225 56.0225C79.3092 55.2359 80.3115 54.7001 81.4026 54.4831C82.4938 54.266 83.6248 54.3774 84.6526 54.8032C85.6804 55.2289 86.5589 55.9499 87.177 56.8749C87.7951 57.7999 88.125 58.8875 88.125 60C88.125 61.4918 87.5324 62.9226 86.4775 63.9775C85.4226 65.0324 83.9918 65.625 82.5 65.625Z" fill="black"/>
</g>
</svg>
