<svg width="766" height="200" viewBox="0 0 766 200" fill="none" xmlns="http://www.w3.org/2000/svg">
<g id="Logo">
<path id="Logo Circle" fill-rule="evenodd" clip-rule="evenodd" d="M200 100C200 155.228 155.228 200 100 200C44.7715 200 0 155.228 0 100C0 44.7715 44.7715 0 100 0C155.228 0 200 44.7715 200 100ZM131.25 120.833H125C129.583 120.833 133.333 117.083 133.333 112.5C133.333 107.917 129.583 104.167 125 104.167V87.5C125 83.3333 125 79.1667 120.5 75.5833C120.708 74.7083 120.833 73.8333 120.833 72.9167C120.833 64.875 112.5 58.3333 102.083 58.3333C92.6667 58.3333 84.9167 63.7917 83.625 70.8333H75L65.4583 61.625L62.5 64.5833L70.8333 72.9167L62.5 81.25L65.4583 84.2083L75 75H83.625C84.9167 82.0417 92.6667 87.5 102.083 87.5C104.167 87.5 106.25 87.1667 108.042 86.6667C108.208 86.9583 108.333 87.25 108.333 87.5V104.167H83.3333C78.75 104.167 75 107.917 75 112.5C75 117.083 78.75 120.833 83.3333 120.833H77.0833C74.3206 120.833 71.6711 121.931 69.7177 123.884C67.7641 125.838 66.6667 128.487 66.6667 131.25C66.6667 131.958 66.6667 132.667 66.875 133.333H66.6667C62.0833 133.333 58.3333 137.083 58.3333 141.667H131.25C134.013 141.667 136.662 140.569 138.616 138.616C140.569 136.662 141.667 134.013 141.667 131.25C141.667 128.487 140.569 125.838 138.616 123.884C136.662 121.931 134.013 120.833 131.25 120.833ZM100 70.8333C97.7083 70.8333 95.8333 68.9583 95.8333 66.6667C95.8333 64.375 97.7083 62.5 100 62.5C102.292 62.5 104.167 64.375 104.167 66.6667C104.167 68.9583 102.292 70.8333 100 70.8333ZM190 100C190 149.706 149.706 190 100 190C50.2944 190 10 149.706 10 100C10 50.2944 50.2944 10 100 10C149.706 10 190 50.2944 190 100ZM180 100C180 144.183 144.183 180 100 180C55.8172 180 20 144.183 20 100C20 55.8172 55.8172 20 100 20C144.183 20 180 55.8172 180 100Z" fill="#EC2929"/>
<path id="Logo Text" d="M266.32 116.616L282.256 66.696H294.16L272.752 129H260.848L239.728 66.696H251.728L267.472 116.616H266.32ZM304.676 129V66.696H344.708V76.488H316.004V92.904H342.98V102.696H316.004V119.112H344.708V129H304.676ZM360.924 66.696H373.308L401.628 111.144H400.764V66.696H412.092V129H400.572L370.428 81.864H372.252V129H360.924V66.696ZM453.736 130.344C448.2 130.344 443.304 129.128 439.048 126.696C434.824 124.264 431.512 120.632 429.112 115.8C426.712 110.968 425.512 104.968 425.512 97.8C425.512 90.504 426.712 84.472 429.112 79.704C431.512 74.904 434.824 71.336 439.048 69C443.304 66.632 448.2 65.448 453.736 65.448C459.304 65.448 464.216 66.664 468.472 69.096C472.728 71.496 476.056 75.096 478.456 79.896C480.856 84.696 482.056 90.664 482.056 97.8C482.056 105.064 480.856 111.112 478.456 115.944C476.056 120.776 472.728 124.392 468.472 126.792C464.216 129.16 459.304 130.344 453.736 130.344ZM453.736 120.072C458.824 120.072 462.856 118.152 465.832 114.312C468.84 110.472 470.344 104.936 470.344 97.704C470.344 90.728 468.84 85.304 465.832 81.432C462.856 77.56 458.824 75.624 453.736 75.624C448.744 75.624 444.744 77.576 441.736 81.48C438.728 85.352 437.224 90.792 437.224 97.8C437.224 105 438.728 110.52 441.736 114.36C444.744 118.168 448.744 120.072 453.736 120.072ZM495.459 66.696H511.683L529.251 104.808H528.291L545.859 66.696H561.507V129H550.083V79.752H551.811L532.419 122.184H525.027L505.731 79.944H506.787V129H495.459V66.696ZM603.174 130.344C597.638 130.344 592.742 129.128 588.486 126.696C584.262 124.264 580.95 120.632 578.55 115.8C576.15 110.968 574.95 104.968 574.95 97.8C574.95 90.504 576.15 84.472 578.55 79.704C580.95 74.904 584.262 71.336 588.486 69C592.742 66.632 597.638 65.448 603.174 65.448C608.742 65.448 613.654 66.664 617.91 69.096C622.166 71.496 625.494 75.096 627.894 79.896C630.294 84.696 631.494 90.664 631.494 97.8C631.494 105.064 630.294 111.112 627.894 115.944C625.494 120.776 622.166 124.392 617.91 126.792C613.654 129.16 608.742 130.344 603.174 130.344ZM603.174 120.072C608.262 120.072 612.294 118.152 615.27 114.312C618.278 110.472 619.781 104.936 619.781 97.704C619.781 90.728 618.278 85.304 615.27 81.432C612.294 77.56 608.262 75.624 603.174 75.624C598.182 75.624 594.182 77.576 591.174 81.48C588.166 85.352 586.662 90.792 586.662 97.8C586.662 105 588.166 110.52 591.174 114.36C594.182 118.168 598.182 120.072 603.174 120.072ZM643.937 66.696H655.265V105.48C655.265 110.6 656.561 114.296 659.153 116.568C661.777 118.84 665.121 119.976 669.185 119.976C673.281 119.976 676.625 118.84 679.217 116.568C681.809 114.296 683.105 110.6 683.105 105.48V66.696H694.433V105.48C694.433 110.728 693.425 115.208 691.409 118.92C689.393 122.632 686.497 125.464 682.721 127.416C678.977 129.368 674.465 130.344 669.185 130.344C663.905 130.344 659.377 129.368 655.601 127.416C651.857 125.464 648.977 122.632 646.961 118.92C644.945 115.208 643.937 110.728 643.937 105.48V66.696ZM732.874 130.344C728.554 130.344 724.57 129.592 720.922 128.088C717.306 126.584 714.362 124.296 712.09 121.224C709.85 118.152 708.65 114.248 708.49 109.512H719.626C719.626 111.912 720.218 113.88 721.402 115.416C722.586 116.952 724.17 118.104 726.154 118.872C728.17 119.608 730.378 119.976 732.778 119.976C735.082 119.976 737.13 119.672 738.922 119.064C740.746 118.456 742.17 117.592 743.194 116.472C744.25 115.32 744.778 113.96 744.778 112.392C744.778 110.312 744.138 108.68 742.858 107.496C741.61 106.312 739.594 105.224 736.81 104.232L724.522 99.336C719.722 97.448 716.042 95.256 713.482 92.76C710.922 90.264 709.642 86.824 709.642 82.44C709.642 77.384 711.642 73.288 715.642 70.152C719.642 67.016 725.226 65.448 732.394 65.448C739.37 65.448 744.762 67.08 748.57 70.344C752.378 73.576 754.538 78.088 755.05 83.88H743.914C743.498 81.416 742.378 79.448 740.554 77.976C738.73 76.472 736.01 75.72 732.394 75.72C729.194 75.72 726.666 76.392 724.81 77.736C722.954 79.048 722.026 80.712 722.026 82.728C722.026 84.456 722.602 85.832 723.754 86.856C724.938 87.848 726.762 88.808 729.226 89.736L742.858 95.016C747.466 96.808 751.002 99.064 753.466 101.784C755.93 104.504 757.162 107.912 757.162 112.008C757.162 115.752 756.218 119 754.33 121.752C752.442 124.472 749.69 126.584 746.074 128.088C742.458 129.592 738.058 130.344 732.874 130.344Z" fill="black"/>
</g>
</svg>
